<svg width="28" height="28" viewBox="0 0 28 28" fill="none" xmlns="http://www.w3.org/2000/svg">
<path d="M23.334 9.95L24.54 8.744C24.7023 8.5837 24.9077 8.47399 25.1312 8.42819C25.3547 8.38239 25.5867 8.40247 25.799 8.486L27.269 9.072C27.4837 9.15945 27.6676 9.30849 27.7977 9.50033C27.9278 9.69217 27.9982 9.91822 28 10.15V12.842C27.9974 13.1516 27.8719 13.4475 27.6512 13.6646C27.4305 13.8818 27.1326 14.0024 26.823 14L26.773 13.998C16.477 13.358 14.4 4.636 14.007 1.298C13.99 1.14553 14.0033 0.991217 14.046 0.843867C14.0887 0.696517 14.16 0.55902 14.2558 0.439228C14.3516 0.319437 14.4701 0.219697 14.6045 0.145706C14.7389 0.0717151 14.8865 0.0249223 15.039 0.00800005C15.0841 0.00264815 15.1295 -2.30988e-05 15.175 1.50454e-07H17.775C18.0069 0.000835979 18.2332 0.0709753 18.425 0.20141C18.6167 0.331845 18.7651 0.516619 18.851 0.732L19.438 2.202C19.5243 2.41364 19.5463 2.64603 19.5013 2.87012C19.4564 3.09421 19.3463 3.30008 19.185 3.462L17.979 4.668C17.979 4.668 18.673 9.368 23.334 9.95ZM14 28H12V23C11.9992 22.2046 11.6829 21.442 11.1204 20.8796C10.558 20.3171 9.79541 20.0008 9 20H5C4.20459 20.0008 3.44199 20.3171 2.87956 20.8796C2.31712 21.442 2.00079 22.2046 2 23V28H0V23C0.00158786 21.6744 0.528882 20.4036 1.46622 19.4662C2.40356 18.5289 3.67441 18.0016 5 18H9C10.3256 18.0016 11.5964 18.5289 12.5338 19.4662C13.4711 20.4036 13.9984 21.6744 14 23V28ZM7 8C7.59334 8 8.17336 8.17595 8.66671 8.50559C9.16006 8.83524 9.54458 9.30377 9.77164 9.85195C9.9987 10.4001 10.0581 11.0033 9.94236 11.5853C9.8266 12.1672 9.54088 12.7018 9.12132 13.1213C8.70176 13.5409 8.16721 13.8266 7.58527 13.9424C7.00333 14.0581 6.40013 13.9987 5.85195 13.7716C5.30377 13.5446 4.83524 13.1601 4.50559 12.6667C4.17595 12.1734 4 11.5933 4 11C4 10.2044 4.31607 9.44129 4.87868 8.87868C5.44129 8.31607 6.20435 8 7 8ZM7 6C6.01109 6 5.04439 6.29325 4.22215 6.84265C3.3999 7.39206 2.75904 8.17295 2.3806 9.08658C2.00216 10.0002 1.90315 11.0055 2.09607 11.9755C2.289 12.9454 2.7652 13.8363 3.46447 14.5355C4.16373 15.2348 5.05464 15.711 6.02455 15.9039C6.99445 16.0969 7.99979 15.9978 8.91342 15.6194C9.82705 15.241 10.6079 14.6001 11.1573 13.7779C11.7068 12.9556 12 11.9889 12 11C12 10.3434 11.8707 9.69321 11.6194 9.08658C11.3681 8.47996 10.9998 7.92876 10.5355 7.46447C10.0712 7.00017 9.52004 6.63188 8.91342 6.3806C8.30679 6.12933 7.65661 6 7 6Z" fill="#268C29"/>
</svg>
