<svg width="14" height="14" viewBox="0 0 14 14" fill="none" xmlns="http://www.w3.org/2000/svg">
<path d="M11 14H3C1.346 14 0 12.654 0 11V3C0 1.346 1.346 0 3 0H8C8.26522 0 8.51957 0.105357 8.70711 0.292893C8.89464 0.48043 9 0.734784 9 1C9 1.26522 8.89464 1.51957 8.70711 1.70711C8.51957 1.89464 8.26522 2 8 2H3C2.448 2 2 2.449 2 3V11C2 11.551 2.448 12 3 12H11C11.552 12 12 11.551 12 11V8C12 7.73478 12.1054 7.48043 12.2929 7.29289C12.4804 7.10536 12.7348 7 13 7C13.2652 7 13.5196 7.10536 13.7071 7.29289C13.8946 7.48043 14 7.73478 14 8V11C14 12.654 12.654 14 11 14ZM8.166 9.833C7.816 9.833 7.477 9.694 7.225 9.442L4.557 6.775C4.31702 6.52275 4.18516 6.18668 4.18959 5.83854C4.19402 5.4904 4.33438 5.15779 4.5807 4.91173C4.82702 4.66567 5.15979 4.52566 5.50793 4.5216C5.85607 4.51754 6.19201 4.64975 6.444 4.89L7.86 6.307L11.335 0.852C11.4171 0.693716 11.5302 0.553504 11.6674 0.439655C11.8047 0.325805 11.9633 0.240629 12.1341 0.18916C12.3048 0.137692 12.4841 0.120976 12.6614 0.140003C12.8387 0.159029 13.0104 0.21341 13.1663 0.299932C13.3223 0.386454 13.4593 0.503359 13.5692 0.643737C13.6792 0.784115 13.7599 0.945116 13.8066 1.11722C13.8533 1.28933 13.865 1.46904 13.841 1.64575C13.817 1.82245 13.7578 1.99255 13.667 2.146L9.333 9.146C9.23293 9.32641 9.09231 9.48111 8.92225 9.5979C8.75218 9.71469 8.55731 9.79038 8.353 9.819L8.166 9.833V9.833Z" fill="#FFC700"/>
</svg>
